<svg width="24" height="24" viewBox="0 0 24 24" fill="none" xmlns="http://www.w3.org/2000/svg">
<path fill-rule="evenodd" clip-rule="evenodd" d="M10.4534 4.53073C11.7293 5.37465 12.6605 6.65569 13.0756 8.13806C13.4906 9.62043 13.3617 11.2044 12.7123 12.5983C13.8717 13.5 15.2829 14.0096 16.7454 14.0547C18.2079 14.0998 19.6472 13.6781 20.8589 12.8495C22.0705 12.021 22.9927 10.8277 23.4945 9.43934C23.9962 8.05099 24.052 6.53821 23.6537 5.11603C23.2555 3.69385 22.4237 2.43465 21.2763 1.51741C20.129 0.600174 18.7247 0.0715793 17.2629 0.00676476C15.8011 -0.0580498 14.3563 0.344214 13.1339 1.15638C11.9114 1.96854 10.9735 3.14927 10.4534 4.53073ZM16.9607 6.379C17.5529 6.379 18.0335 6.86448 18.0335 7.46265V10.5732C18.0335 10.8606 17.9204 11.1362 17.7193 11.3394C17.5181 11.5426 17.2452 11.6568 16.9607 11.6568C16.6761 11.6568 16.4033 11.5426 16.2021 11.3394C16.0009 11.1362 15.8879 10.8606 15.8879 10.5732V7.46265C15.8879 6.86448 16.3685 6.379 16.9607 6.379ZM15.7025 3.63954C15.7025 4.45617 16.3719 4.81508 16.8439 4.86709L16.9641 4.87403C17.4327 4.87403 18.224 4.52726 18.224 3.63954C18.224 2.82116 17.5546 2.46226 17.0825 2.41025L16.9624 2.40331C16.4938 2.40331 15.7025 2.75008 15.7025 3.63954ZM6.97755 14.1085C7.53458 14.1198 8.08826 14.0189 8.60617 13.8114C9.12408 13.604 9.59581 13.2942 9.99374 12.9003C10.3917 12.5064 10.7078 12.0363 10.9236 11.5175C11.1394 10.9986 11.2506 10.4415 11.2506 9.87875C11.2506 9.31598 11.1394 8.75886 10.9236 8.24003C10.7078 7.72119 10.3917 7.25106 9.99374 6.85717C9.59581 6.46327 9.12408 6.15354 8.60617 5.94609C8.08826 5.73865 7.53458 5.63766 6.97755 5.64906C5.88167 5.67147 4.83815 6.12694 4.07097 6.91773C3.30379 7.70851 2.87409 8.77157 2.87409 9.87875C2.87409 10.9859 3.30379 12.049 4.07097 12.8398C4.83815 13.6306 5.88167 14.086 6.97755 14.1085ZM9.22218e-06 22.5661C-0.00283793 20.7962 0.653658 19.09 1.83903 17.7866C3.0244 16.4832 4.65188 15.678 6.39802 15.531C8.14416 15.384 9.88113 15.9059 11.2638 16.9932C12.6464 18.0804 13.5734 19.6533 13.8607 21.3992H22.7126C23.0541 21.3992 23.3815 21.5362 23.6229 21.7801C23.8644 22.024 24 22.3547 24 22.6996C24 23.0445 23.8644 23.3753 23.6229 23.6191C23.3815 23.863 23.0541 24 22.7126 24H1.32171C0.995785 23.9999 0.682026 23.875 0.443737 23.6504C0.205449 23.4257 0.0603693 23.1182 0.037772 22.7898C0.0136979 22.7177 0.00151994 22.6422 0.00172571 22.5661H9.22218e-06Z" fill="white"/>
</svg>
